<mxfile host="app.diagrams.net" modified="2023-08-21T18:16:48.890Z" agent="Mozilla/5.0 (Windows NT 10.0; Win64; x64) AppleWebKit/537.36 (KHTML, like Gecko) Chrome/116.0.0.0 Safari/537.36" etag="eVjp8VMz9YeiL_ClK9Fh" version="21.6.8" type="github">
  <diagram name="Seite-1" id="8O6tTCdfgpITmd0o28RQ">
    <mxGraphModel dx="368" dy="203" grid="1" gridSize="10" guides="1" tooltips="1" connect="1" arrows="1" fold="1" page="1" pageScale="1" pageWidth="827" pageHeight="1169" math="0" shadow="0">
      <root>
        <mxCell id="0" />
        <mxCell id="1" parent="0" />
        <mxCell id="Ou5FSDPLYj5hlg3WEzVt-36" style="edgeStyle=orthogonalEdgeStyle;rounded=0;orthogonalLoop=1;jettySize=auto;html=1;exitX=1;exitY=0.5;exitDx=0;exitDy=0;entryX=0.25;entryY=1;entryDx=0;entryDy=0;" edge="1" parent="1" source="Ou5FSDPLYj5hlg3WEzVt-31" target="Ou5FSDPLYj5hlg3WEzVt-7">
          <mxGeometry relative="1" as="geometry" />
        </mxCell>
        <mxCell id="Ou5FSDPLYj5hlg3WEzVt-39" style="edgeStyle=orthogonalEdgeStyle;rounded=0;orthogonalLoop=1;jettySize=auto;html=1;exitX=0.5;exitY=0;exitDx=0;exitDy=0;entryX=0.5;entryY=1;entryDx=0;entryDy=0;" edge="1" parent="1" source="Ou5FSDPLYj5hlg3WEzVt-31" target="Ou5FSDPLYj5hlg3WEzVt-38">
          <mxGeometry relative="1" as="geometry" />
        </mxCell>
        <mxCell id="Ou5FSDPLYj5hlg3WEzVt-31" value="Generated character" style="shape=image;verticalLabelPosition=bottom;labelBackgroundColor=default;verticalAlign=top;aspect=fixed;imageAspect=0;image=data:image/png,iVBORw0KGgoAAAANSUhEUgAAAEAAAABACAAAAACPAi4CAAADdklEQVRYCaXBXWiVdQDH8e/vnLOd7fiWaxrkGxGUhJSBTSNQtMgyRSF6oatC8qISKiWxLiQMsZCiqKSiC2dZ0I14kVghWZFIOqKY5Su2Rmhzbs696LOd59dTatv5uwMPPJ+PTDYy2cikY3C5s2OWqCRTyeUc2HHfYO/54y35ma33dgx0nYPeuoHe9l8WfpKnkkyFQ6/05W6JPP3wgYtRVLYU18Qx5rLc2k2iksxIrU0DRigXx1wlc1VuzRsEZEbovHHQXEPmivxbqwnIDPOifWYkgWRMwkDhvVUEZIYdueMS/1Nx/Pibio1TmuLzB//s1tm/+wc85psmAjLDWpe1xRQYMqDZG+5qyCsnge04Hjy2fc+dW8cRkBnW37zx1rYZLT0xUPh8RZ5KjvIFQjIjRd7/8c5eEvm980lDptLQzw+eJVFzbAZpyARalpwhUX9kGmnIBLrnnCAx9sRk0pAJnLrnLxITjtxAGjKB9kXHSDQenkQaMoHDS/4gMfnoBNKQCbTNPU1i6tF60pAJHJ/XSWLqiVrSkAm0zekgcfvBGtKQCbTc30li3s6GAkYgl6MS1cgEfp3fTaJ+7t0zS21RqWfSlOK3y5uoRiZwYPF5EhISNvn89FnNY6hGJvDT4i4qqPTcphzVyAR+WH6OStfteEBUIxPYt7SXSqX3n6ihGpnAVysG+Jf4j6Hm6S31VCMT+HppBNTMWNBQ7mw819V+so/bvriZamQCHz5TBoobVtfZ2Bd+e/X3KXsmUo1MYPPLBnKb1+S4LO6NrhfVyASe3WpAL23KkYZMYO2bBnIfPSXSkAk8/46BwtaVIg2ZwPrXDdQ2P0YqMoF1W2KguP0RUpEJvP1iDNTvuo9UZALvvjAE1H+5QKQhE/jsyQgobntUpCET+G5ZD5Bbv1GkIRPoWvajQQt315KGTCBauSMG6r6fQxoygbh51SCgBXtqSUEm4P1Luw0UHvqgUeIKQ+ye3ukiIBNw+8OHYhK5SU2z6+O+Ym3UH1/qvlg6dbp7TGsdAZlAfOa1bf1mVGO7CgRkAo5OrttdNqNpOCsCMteIL6zadcmMYlx3joDMKIY+3b7/oglpbEctAZnRlM/sPhRNvOAJUVkTB3saaztdKJVL0x4vEJDJRiYbmWxkspHJRiYbmWxkspHJRiYbxSITxSITmSz6SzKZ+B/aN2kPdQ6MPAAAAABJRU5ErkJggg==;" vertex="1" parent="1">
          <mxGeometry x="414" y="327" width="64" height="64" as="geometry" />
        </mxCell>
        <mxCell id="Ou5FSDPLYj5hlg3WEzVt-37" style="edgeStyle=orthogonalEdgeStyle;rounded=0;orthogonalLoop=1;jettySize=auto;html=1;exitX=0.5;exitY=1;exitDx=0;exitDy=0;entryX=0;entryY=0.5;entryDx=0;entryDy=0;" edge="1" parent="1" source="Ou5FSDPLYj5hlg3WEzVt-2" target="Ou5FSDPLYj5hlg3WEzVt-31">
          <mxGeometry relative="1" as="geometry" />
        </mxCell>
        <mxCell id="Ou5FSDPLYj5hlg3WEzVt-2" value="Generator" style="shape=trapezoid;perimeter=trapezoidPerimeter;whiteSpace=wrap;html=1;fixedSize=1;direction=north;size=40;" vertex="1" parent="1">
          <mxGeometry x="250" y="300" width="90" height="120" as="geometry" />
        </mxCell>
        <mxCell id="Ou5FSDPLYj5hlg3WEzVt-22" style="edgeStyle=orthogonalEdgeStyle;rounded=0;orthogonalLoop=1;jettySize=auto;html=1;exitX=0.5;exitY=0;exitDx=0;exitDy=0;entryX=0;entryY=0.5;entryDx=0;entryDy=0;" edge="1" parent="1" source="Ou5FSDPLYj5hlg3WEzVt-7" target="Ou5FSDPLYj5hlg3WEzVt-21">
          <mxGeometry relative="1" as="geometry" />
        </mxCell>
        <mxCell id="Ou5FSDPLYj5hlg3WEzVt-7" value="Discrimintator" style="shape=trapezoid;perimeter=trapezoidPerimeter;whiteSpace=wrap;html=1;fixedSize=1;direction=south;size=40;" vertex="1" parent="1">
          <mxGeometry x="564" y="380" width="90" height="120" as="geometry" />
        </mxCell>
        <mxCell id="Ou5FSDPLYj5hlg3WEzVt-28" style="edgeStyle=orthogonalEdgeStyle;rounded=0;orthogonalLoop=1;jettySize=auto;html=1;exitX=0.5;exitY=0;exitDx=0;exitDy=0;entryX=0;entryY=0.5;entryDx=0;entryDy=0;" edge="1" parent="1" source="Ou5FSDPLYj5hlg3WEzVt-15" target="Ou5FSDPLYj5hlg3WEzVt-27">
          <mxGeometry relative="1" as="geometry" />
        </mxCell>
        <mxCell id="Ou5FSDPLYj5hlg3WEzVt-15" value="Pre-trained character classifier" style="shape=trapezoid;perimeter=trapezoidPerimeter;whiteSpace=wrap;html=1;fixedSize=1;direction=south;size=40;" vertex="1" parent="1">
          <mxGeometry x="564" y="182" width="90" height="120" as="geometry" />
        </mxCell>
        <mxCell id="Ou5FSDPLYj5hlg3WEzVt-20" style="edgeStyle=orthogonalEdgeStyle;rounded=0;orthogonalLoop=1;jettySize=auto;html=1;exitX=1;exitY=0.5;exitDx=0;exitDy=0;entryX=0.5;entryY=0;entryDx=0;entryDy=0;" edge="1" parent="1" source="Ou5FSDPLYj5hlg3WEzVt-18" target="Ou5FSDPLYj5hlg3WEzVt-2">
          <mxGeometry relative="1" as="geometry" />
        </mxCell>
        <mxCell id="Ou5FSDPLYj5hlg3WEzVt-18" value="Gaussian Input Vector" style="rounded=0;whiteSpace=wrap;html=1;" vertex="1" parent="1">
          <mxGeometry x="80" y="330" width="120" height="60" as="geometry" />
        </mxCell>
        <mxCell id="Ou5FSDPLYj5hlg3WEzVt-23" style="edgeStyle=orthogonalEdgeStyle;rounded=0;orthogonalLoop=1;jettySize=auto;html=1;exitX=0.5;exitY=1;exitDx=0;exitDy=0;entryX=1;entryY=0.5;entryDx=0;entryDy=0;dashed=1;dashPattern=8 8;" edge="1" parent="1" source="Ou5FSDPLYj5hlg3WEzVt-21" target="Ou5FSDPLYj5hlg3WEzVt-7">
          <mxGeometry relative="1" as="geometry">
            <Array as="points">
              <mxPoint x="750" y="560" />
              <mxPoint x="605" y="560" />
            </Array>
          </mxGeometry>
        </mxCell>
        <mxCell id="Ou5FSDPLYj5hlg3WEzVt-25" value="" style="edgeStyle=orthogonalEdgeStyle;rounded=0;orthogonalLoop=1;jettySize=auto;html=1;exitX=0.5;exitY=1;exitDx=0;exitDy=0;entryX=0;entryY=0.5;entryDx=0;entryDy=0;dashed=1;dashPattern=8 8;" edge="1" parent="1" source="Ou5FSDPLYj5hlg3WEzVt-21" target="Ou5FSDPLYj5hlg3WEzVt-2">
          <mxGeometry relative="1" as="geometry">
            <Array as="points">
              <mxPoint x="750" y="560" />
              <mxPoint x="295" y="560" />
            </Array>
          </mxGeometry>
        </mxCell>
        <mxCell id="Ou5FSDPLYj5hlg3WEzVt-26" value="&lt;font style=&quot;font-size: 13px;&quot;&gt;Gradients&lt;/font&gt;" style="edgeLabel;html=1;align=center;verticalAlign=middle;resizable=0;points=[];" vertex="1" connectable="0" parent="Ou5FSDPLYj5hlg3WEzVt-25">
          <mxGeometry relative="1" as="geometry">
            <mxPoint as="offset" />
          </mxGeometry>
        </mxCell>
        <mxCell id="Ou5FSDPLYj5hlg3WEzVt-21" value="Decision: &lt;br&gt;Which input is real?" style="rounded=0;whiteSpace=wrap;html=1;" vertex="1" parent="1">
          <mxGeometry x="690" y="410" width="120" height="60" as="geometry" />
        </mxCell>
        <mxCell id="Ou5FSDPLYj5hlg3WEzVt-29" style="edgeStyle=orthogonalEdgeStyle;rounded=0;orthogonalLoop=1;jettySize=auto;html=1;exitX=0.5;exitY=0;exitDx=0;exitDy=0;entryX=1;entryY=0.5;entryDx=0;entryDy=0;dashed=1;dashPattern=8 8;" edge="1" parent="1" source="Ou5FSDPLYj5hlg3WEzVt-27" target="Ou5FSDPLYj5hlg3WEzVt-2">
          <mxGeometry relative="1" as="geometry">
            <Array as="points">
              <mxPoint x="750" y="120" />
              <mxPoint x="295" y="120" />
            </Array>
          </mxGeometry>
        </mxCell>
        <mxCell id="Ou5FSDPLYj5hlg3WEzVt-30" value="&lt;font style=&quot;font-size: 13px;&quot;&gt;Gradients&lt;/font&gt;" style="edgeLabel;html=1;align=center;verticalAlign=middle;resizable=0;points=[];" vertex="1" connectable="0" parent="Ou5FSDPLYj5hlg3WEzVt-29">
          <mxGeometry relative="1" as="geometry">
            <mxPoint as="offset" />
          </mxGeometry>
        </mxCell>
        <mxCell id="Ou5FSDPLYj5hlg3WEzVt-27" value="Decision:&lt;br&gt;Which character is this?" style="rounded=0;whiteSpace=wrap;html=1;" vertex="1" parent="1">
          <mxGeometry x="690" y="212" width="120" height="60" as="geometry" />
        </mxCell>
        <mxCell id="Ou5FSDPLYj5hlg3WEzVt-41" style="edgeStyle=orthogonalEdgeStyle;rounded=0;orthogonalLoop=1;jettySize=auto;html=1;exitX=1;exitY=0.5;exitDx=0;exitDy=0;entryX=0.5;entryY=1;entryDx=0;entryDy=0;" edge="1" parent="1" source="Ou5FSDPLYj5hlg3WEzVt-33" target="Ou5FSDPLYj5hlg3WEzVt-15">
          <mxGeometry relative="1" as="geometry" />
        </mxCell>
        <mxCell id="Ou5FSDPLYj5hlg3WEzVt-33" value="Modified character" style="shape=image;verticalLabelPosition=bottom;labelBackgroundColor=default;verticalAlign=top;aspect=fixed;imageAspect=0;image=data:image/png,iVBORw0KGgoAAAANSUhEUgAAAEAAAABACAYAAACqaXHeAAAABHNCSVQICAgIfAhkiAAAGTZJREFUeF5N2kfMFWUUBuDv/oMoimLvCvbeEFGxgNh7ZcPKuHKhBtmSkIkbdy4I0cSdW4OJmNgbolixoFhBUbEgIvaC7Xeek7yJk/y59858c8r7vuecbwZG48PxxBNPtBNPPLGtX7++nXnmme2ff/5pEydObH/99Vf79ddf2xtvvNG2bt3a9ttvv/ocGxtre+yxR5s2bVp766232rHHHtt22223tmrVqjZlypQ2mGxHH310e+SRR9ohhxzSdtxxx/bmm2+2Pffcs51xxhltw4YN7csvv2wHHXRQe/fdd9sxxxzTjjjiiOb4/fff284779yefvrpNmvWrLJ55JFH1rrtt9++fItpr732arvuumv7448/2oQJE9qPP/5Y9r755pu2zz771G9rf/vtt7Irxi1btrQDDjigffbZZ+2kk05qGzdubN38+fP7n3/+uY1Go+Zz3bp1FfBOO+1UC/0JbsaMGe3VV1+t5A4++OB2/PHH1+9ddtmlHEnKd47//PPPtnbt2loLMEGdffbZ7YcffijA2HaeT3Y+/vjjSui9995rO+ywQ3v//ffLL5BOPfXU9tFHH7VNmza1o446qn47f9ppp7XXXnut7AJA7AhBBCDkce6551ZM2223Xfvll18KXPeecsopZVOso7fffnv822+/bX///XexLrlDDz20Pfvss23//fcvQxLad9992xdffNHmzJlT5yD59ddflyoef/zxCkwA2HnyySfb9OnTCwDO3f/JJ58UEzNnzqyAqYpPa/z+/PPP67oEvvvuu3bRRRe1bdu2VaDW8Os8FbAJSNevuOKK9uKLL5ZvREyaNKliFSMlff/996UwKnd99uzZpQrJW9vdfffdPckAwUUOIUX+HDMs6E8//bTKhOyg7RqmMI01LL/++usFCIfsKBOgARLDe++9d3vnnXfqft8//PDDkuLkyZOLNXImezadZ59aKIRasGgNEDAJZEAoW2upinrFCBR23S83ZS0nZeDcgQceWArqbrnlll7dSvqnn36qRDjACpahDjFGqQNzX331VTv55JOLNYFD0xpJ7r777hWw32xwKjgBbN68udboC9AHDhVRHBAd7pUYv4AiYWt8x6AY//333yqBl156qc2dO7f6C9CVibiiqOOOO64AYVNO7gEgUh2U0l1++eW9AAUBZWBIEKrqUDPjGFuUwgCjgqACTH7wwQeVWJoQ5jEEhDQuKhjKrcrMvVgmZYnqH+obO1jm7+WXX67mp3HyE5Vg01r+AKi0TjjhhCIutQ0kybIjDmWFYKWYZgsAQI1ZDGXyYZx0IachqSE3Yk5yEoWeGx977LECRKfXiATSdV3VteuSd4+y0G3Zce2www4r2Wp+1AJ4k+GZZ56p33zp+EpADK+88koBoAzZowRA8qcx6xUkza77gCFOU+Spp56qHgBUvvlyuO4AYE0B8nRAjQrSeAABIDKWEMlgyx/ZS0JAkqMassYwZo0vQeorVMMGBjAqIH8AlpzEqYJfACsHv/UDNimRTST5zSZ/hx9+eJUHdShHZYAECuHLQaHudY4i+OXTyHe+u/fee3tykrhEBEjiEuaEc0hjFVDWuO68Lqw5+k7iEtAr0vklzpl1mg7gJBGglQq7mlHKh23gGmFKwqhlM41WI8am8li5cmWVqNjFwBe5O8Sqhyld4CPPdYAhlcKM5TEspTbdCE09QT1BW5MRCNlgV+1iTsD6hfLh1DXsrVixohJWawLXgAQsKUFxqpG6z7j0yU5YxipJk791vlMafxLQ+MSDCH6VIFYlaw3JO5SnUhMrAhFFHaYUZZtGmvEEdT916tS6mUQEcuGFF5YDsmJYDVuXDREHlIJBa9y3Zs2aYokTrLmfEkgZMIAAiGAAovll0zNnmPHWUx3wJYhp5CiD9AHS55NKgClWcZMzAsTBpsQBoQFTJtIo0EGV1ugVjtEQ2LgvHEOHXCALVePo0UcfLWeQTB+gBomQlxpznrSwc8MNN1QzkqREXFebmFZSYQmAWFIWCFAKpKkxAceB8Uyes846q5QlaQlgVOlqmkASr2Qd+pJ4kWN0O8QIJGpnH8nVuG+99dYeWpjCMBR9RkLnnHNOSUVwur0NBsna8ZEnNtSi+yXlHMWwaZeWOlca1CRZBz8YkoRdmhnOhnPKUBJsS1bAGFM+2UIDREwYRRA7gJc44AGkPzhMIsBTp7g0RP5MhTE1hyVJWUCqDpKHGOTynKBZWYtNDKtR45BiAAIo22IqSqc23twPULUnAc1S0OocywJhzywHvgSoRlKSMCWUiJkueMlZz0bKR5koOQqhNKDJxTSiAokbi3yIV6zu6RYvXtyrTU0ByhlXpIUl40SQnGqMks6o84SFLUwAIE9sysPujBokTbqYtNZ3TDqw6LxglCDQ2EYEoPQB4AEhtcsm9sRz+umnlx2JRyFU5Lmk2B3i51MseoA4KVqZIbGm35DcOMnmMVZdGzGkftlll1VzE7DAs8YYu++++wpZCoIsx5zpD9BWl+SOEUBJjFMKwSKWrr/++gqSIgToAca4cqhfDNsk+USMzY0yst11KCu1r2xMCj1M6fApZiVESVRMEfJavXp1xacH1NPgcGGcxDiQrB2VQARPFQwLiixJJ7Xq0x9ngDEybV+NTTUNPMEpGUhjDtvAFhDF8JWaxCiQsY/RjFU+yN8fpZookkTQxRdf3J577rlqoGxTiRISE1Wp/Uwh/qxRAkDRMK3rFi1a1Asqe2sLBaFDcqZONTfN5eGHH64tKXTVl3swBDwGTYK8kKAGQAKNrTw/kLQDW0qGmgBF8mxgnkIwrc6tUUYUAmgKzUOVuMQAfH/KAIlisk6syscaKsn+BJhs1U7w5ptv7tMQSEK31GwuuOCCYoo6LBS4msQuJtQZRKHImfoSNLWwA31BS4wdijItBAIoNjHJPhUAiw0MmtsAdh+5p4doWnmzwy6bpM0/helVYkccgJUOhYjHNcQhUszypLIJDEUm0JZEZmfeqkAcagKxlkIeeuihKg8HCQoGexSjDDRMieRli96QXaONi4AwKHmfZAlQ+wJJsumac2qfgs4777zy51BaDv0DOcrphRdeKLsBBWEZf5qiHNzHH2CQMCYZjLqoC0eijEsEQIKCqORICqKAIFFTgiM9AptQNy7Z09kFJgkMuVdf0YDs9dm2TiNMGVKBXoJ9CgIitZEs9XlTRRXYxDabAFOGiMMwpYRtitJwHRnDbCozjbq75557ekln50SipIE5CTMsAEEKAjPZfBgnmCVBIJr1eoDxZP4Cyho16F69QIJA0sGVgDrV6CTsN5VdffXVNebUtf6AACOTD7EB2l/eTRhzCKFUJZgpIy6+KAIRwHdkI8TvaJD5OJlIVOMiDYBA2cjIxkcSWFI/2LPGnt/1lIZNj35CDZJ3TWNzngQBBGBMaaj8saNclIXmpQRtVylTDIBCAKUAl2yBSZEUBCjgAUNJii/7A31E4gDAOgABp9FTrl7ULVmypN4ISUIQDDMIedI15zmCLIY8RuoNxhDDjJEchUjMb52YHYxDWXd23ibK84VeAxB2BGK7rHaB7NN1ZSVZIEpc4PyTNAAojLTJGMjixLg48kzAlt7hGYVCAC1XMSATkV0/HBqJJmaRoEnPbs4IY0CQpBvmst/HJjlhEmsklpeZpAcESWo67PuzaZozPP15FBaswPlHAJABJgGlRfpioE7MZrS6T4OkKP2GL+BZl/EmFnlQI3XYAfKDVOUuFja6BQsW9BKRIFbslizkHNrY0AtIGxiReLaUCTigZTsMLHYBIAD1KRjJeVw1ZjVR5ff/LS2mgemcepeY+5SAKUKdAAWWe6kwE0fswBGnOJSXJmkd4JVYNmcaKpv1NAg1I4zENLmMIufVGJlxTkqCwzI5M+y6QJUE6ZMt9lJKXq6ya41glFNqNaOMGqzTN/J+QWdXkhIkWfeTOFk7gEKZbCFB0s75k7x6V3oAMS3cj1ixa/DsGL1jbsCIEQFtI0jCFmkc5OV4/vnnK8jzzz+/EtJgsOm7keN+paFxkRc7Gpr7JJoESJDaAJ2ubb6TpfIzeo0/SeThCSHu54O/gAIgh/IwCYCgXwCGKqzztJp9hoaIJHkCgmq76667roe8wCUsOIiSeORFNgLErLHmOqYZ0FQ0E8EAwA4QMNShy2IdQEpHYOpW8oLJ1AEyRen2rrsfwIDEnu2yRquRUiLm1Li4/NaHlJma5pdiSJxvPpSVuOTDPmU7qKAb3uD0Ro6g8u5NgoIXGGQtJClMalpKQf0K8pprrmkPPPBAOVH3zguM/DAM/UiOHAWcbaw69l3QwBMDm7q7WPj1XVlQhvUYRphkkIAY/sQFOMBkLwAwyer41GN9cmKzdoJOQAVD2dRwbDQJ1lsdC00IDS1NTsBKQu3b2ekNWGAL8tigKgwCxXoBUZnmJImUArAALAGg2fRQjSZlHAJGnPoNEClDQpq070BRag5vrZQLpWaXyQ9/gEKSKUS1SnQ0SHjcDVgnUcFxSjIkaTPkPABc00nVN5lpXtm3k/C04SEEELox59AHGPsCdy9pYi2dWyJYF7i9fDZWtuV6kzIDjgQAyYZJoN4dAM1mx1r+EJb3kOJBBB/sABgZefQey0tJzcmCPA/4LQGf+kG2oYIy3qiDUjDuKS8vLKyTCDYlq8lKHihYuuSSS6oJAcU5DYyCgOw3RjHkPiypf8oBLsaVk7LBMEVKSMLIoVrrKDHTTGnqU5QIeMC4zr6x3y1durQ35yNRgevGEoIaQEhHzQHEeHNIjkPGJaNWBQIcCdsmX3vttbWlZVvA6lizhL45j0lBYQ0ASkoidnkUpHYBImGMG4PKC/h6lP6iySGJTfEqFeXHnuvycY49KhYrf4hzvRvGWm+3hU1Ic2h3pS4h7EbX1R/ZCkYAEuYEIH4LBAAknW6NLQ87zrtP8tTEHjCBzI6aV0oSxGA2NIDnH6j8SAxoAKVEyUheuabhsSlpQPkeIuUjYUQihW09oLvxxht7Tsxe0tRQ/BY8MBiCNkPqUKOEKGmZpYLQExg0jjAtGOBQiJIIiBot+VlDZekrajgPQAJ0DxWRPOBJVZmpcc0xSvDdvZocRfGHWZNA7FSYfmT/wCYQxMq3OMYkqObclAaEJd/9eWozViDtpjxH+45ZQAgQMwJwThBA8+m85Hy6pmYFLECskrZABWj0IcK6bMSsZwvYSsInP+53j76iWVvvQIa4gaOH2D9gmrIoUC9ghwIpqR6HBaTDYlliECJ3juyclAcQMEnuJgOj2BGIhkKGpGqCZA+RhxCSE5ARZGyyjUXS10PIkw+M8EmJ3h4Dlk2NElBKx3aWPdeAQ4EAcEhOXOkHUYQJxaZ4KFPZIVTPqcdhTJA1dhlWBhZxTEKCELwNEAB0UtcARrLkbL8APAxIRu0DVZA2UwLFBnlTBn8krumZRDYmApaAwzobJOpQOsY0xvQSHR7w4lVu1iIAq3xprBjXl/QKgLtGieKw3tNu/ReZK6+8sid/KEJWJ5WgQCSiEUqSQc5IjfSwxmiC8wk4DtQqdSgP350TtICphcSx4QAkxgABfIdmB0yACd4hcYBiTYKUIyZJuQ+j4mWXLSrGPFCBImZ5iYeSlSSARoM0x6GfeuTIRckAJRsOaJnJ2YQsW7asRuT9999fTHJ26aWXVoJKgEOBkJyEvMPXRAXgvD/bV9cygQQLVG+l2JaUOPIsofSUmMCpgS/qFKMydl4ZKFcgIwyQ1ENxmPc7Y7WmwE033dQLQmCahCBrgzCoQZ0aKaQvGNcogtz8w0ceOzGsZOzKHBwpFQ4AJgH3Y1PTUst2kvYf/jBKQZqTT3/uAyKbAJIQxgHnLTGf7AMA4MBQbukjks4TJxD5cI+cNFJly94EiXv8pQLbTC8OBO/PAofOnM2RYHRZgZF4ZJYtcTZKEhWUPqG7W++aQEjeOFUSANWgJOI3aWMOCN4lYtrjsutA1i+8TNFrMI31ECheCgGE/kExQKS+HABgk9KMxe6uu+7qXcQ4Q9hz0XaWQXWo3smTQ4EpB6NTbQkGo9SgfwASMJRDbuSpHwBB7fGhgWEIIBiVmHucS21rXoC66qqryp+kUkImk6brnASVEsIoGDnKwCd/2VNQkDIBjL4BKOR1w/+yqsdhBwnaF1ioZshJIm6GNPTdDDlrMUN+QDLSqIQsMU/yknefQDQlSbpuFALXOSA4pxk67z5KAJLma+NCgdlLmErWA45vZIk/jRYJ/Ok9NknAAHr+TDP3yNExGiQ6Dm1jgfQEwHEeIrDvcI6MlQxjqSkM6Lx5vrbWBgST0JeY65JN45OERqcW9QfsuV/iEhA8QAVPrspOHUs021uksMeuZw4HgijU4U2QBy85sSEGxKUPOKcMuzvuuKNnBCqSt0hSgiJ7BjRBLEAcABlz/o8eIEjXeoiTM0Al5161K5Ewh/Hs6CQKAE1VDJove44Vw78HiEmiAKCYlIBeRVmaqtHoPD/siZV6lIV/ReKXmvUaeQGJXUoAZr0WT5DqWALmpac9EiZB19W5coCgG6GPNQ1MgNDMXsI1MhQIBZCb+a3jC0RQAtcbrBMgn3Z5lCMhmyUNy7N8ap098qdAvgFJFa6L1T386f4+qUgs4rXX0ZP4A7L11nXDs3iPPRcwpnkw6qlOYNnIaESS5QxIgCCjsI8NCuHECMumCfv+qUtDk7g1yonUsarnkLfr7HrFRg32HMAXpGab/6uIJL1GAnqUdwmIUbLixnBqH8te2uhJ8tOz+KUOKnWu/ocIdCQsADIhO4HmxahkKMAGAgt2g5xzaL0AsBbGXKcIMsWK6x6qlBFGoijSZxeQDqACyXm27RWUiKATlzdHkgcytajzsG4NQNlBhHIGABApia+UF8D0t9EQ6Ljm49AoICNJCflNPpQgEMHb9XEArNR41mKNMwwLEsLuI1uSN3acM06xhBmg8eOPiow40gWge60FaGpZ/XthIgZx8qf2NVxzX+KS1WvsFfJShC+gAQiRAHCMhsDG1ZSFgmTQp5GEGXXtWRxaasdTWl5hYZh09QDnBU45JKrRKA9lQ+rWqX+NVjASwjK1SRBgeoT/NwRY/YDKyJVCqUdTto6ixMIekPjyyb9DPkjQVJVu/uUJIO5VGposJVYJZFS42Y0ScpHEMEWC5KQ2bYAcGpBNhf8oISgbC6yFbcrBnh5gNLkG2Oz3NVmgY4JPCZEwUJCg/NSz+4DnXgkCDDnz5s2rOCRlfcY1IJSdvqJ/Wes+T5WAQBqVA6dUDQCGbDTIRp0IxKcxkv+VgbWoRPCMGTl2ZBgnZQ9DeZtMbrayEqMkMqUIinKfZwn2855BsBowMFNeApQ4UPiz4aIEqgAKn0qSckhfM2efX3aRoBzEq0R8t8O1bQckMrpBcj3E8gCDabKhgCjDTaRLalSR8UK65A2sdNdMDd0aK8YblrPHELzAyBS4FKL+9Q9J+U7yQFPnGYns+E0tABEnu2KnRrL2W6zizGM01YqDzbxQBbR49JtSACekoUlJwL7dobsKkHNJMqJ2zWAqUQJYBYLGIimCwoZ1nGOeROPQm2F2rHdIhG3Mk6X//S0pMfFhhPo0CjU9cQJBM+XfHgObksGwvoF9n1SYhk5J1gJRGesfFD8mQH9qBuOS54z8yNeTIsY0pf/XmRElCIm6JikMUAXAKIADQSgdtrBsi8qOBIGlKRnB7nvwwQfrN/bEof/YLLkXyJIhW6Tw7fCpFJQUG/xpvHqScgCE+ClKf5I8sNwDhO62227rsw9X5xyoMzJjEHvAIF2HNQKAKMY8m2tY1MJxNiTupQDyND6t12c0RP7UNJtpfNbm3wr0FKOXkgQOLCXKtz4ASOCkLKlIUhQhSaBlowRMT4l2oqTvcD3Tq7v99tt7LDogwpiDIygyDBSNxif5CYQxCfnncgd5AcQazFoHONclAhjXJEr+WAWkTk8pQMdenvQkk0dZJeE9BUax6TzFAUkyysKzBxIA714MA0qj9cguNw9zidk99YB155139oximpywqCY1EugLDHuCFTw21JEEOHVgWcLsCAhYdmzOYwI4QFAKApQIcNhRt16eGHcSAgaANFV7CgCJTTKSYJ8df4BxXSxUo7vbqmOcXdMA6EA1nZBBjXyLVa6jYfc0zliahXrmkHQEpXM6JCAh6xzmK8POa34c5ZpAHWSqFwCOY0oLmFSij+SxFfjukzRbqVvA5211iMrEKSfDwQdg2QQCX3aFmiESKUKfQ4Ymm3/VFn+3cOHCXuPRSSFHxhKxWTBa1JkDw9hhnHSc9ychZWN8KQsMAAoD1mKJXWohXWCofeiTJBCy/bY2D2SAVYLmvHsoMu8E+JOYJCWOUeVjh0raRiF1qXPxSD7vCdjPKDXBxtxg9Dkgz5HAKSDnXWNEw3JwFrmTLfZ0bRscwQBGPTqUjDV6CebYzqZI8HyQN3vYBhSZW6PBenEiJnsTn9az6QAyxvPvjQBavnx5TaFpw9Swl3EPMBBEKUgCLuAppt4HCERnJllJutEBYd/tzBh0I6Xk8RSCDEpQUHnQEQj2bJpcM+YwptTI3DnjyWfsYUW5qWU1rQ9gzb2ZJJi328tWVvloyJTpMLkwrucoG0QBlAIBiBg9I4/fQP8P501kkZCSYqEAAAAASUVORK5CYII=;" vertex="1" parent="1">
          <mxGeometry x="470" y="210" width="64" height="64" as="geometry" />
        </mxCell>
        <mxCell id="Ou5FSDPLYj5hlg3WEzVt-34" style="edgeStyle=orthogonalEdgeStyle;rounded=0;orthogonalLoop=1;jettySize=auto;html=1;exitX=1;exitY=0.5;exitDx=0;exitDy=0;entryX=0.75;entryY=1;entryDx=0;entryDy=0;" edge="1" parent="1" source="Ou5FSDPLYj5hlg3WEzVt-32" target="Ou5FSDPLYj5hlg3WEzVt-7">
          <mxGeometry relative="1" as="geometry" />
        </mxCell>
        <mxCell id="Ou5FSDPLYj5hlg3WEzVt-32" value="Real character&#xa;from font dataset" style="shape=image;verticalLabelPosition=bottom;labelBackgroundColor=default;verticalAlign=top;aspect=fixed;imageAspect=0;image=data:image/png,iVBORw0KGgoAAAANSUhEUgAAAEAAAABACAYAAACqaXHeAAAAAXNSR0IArs4c6QAAAARnQU1BAACxjwv8YQUAAAAJcEhZcwAADsQAAA7EAZUrDhsAAALcSURBVHhe7Zq7bioxEIYHAuEiAQKBtIDo8ibQRBENDQX0vAIN70BPT0sBErwFTV4gqRJWkA5FucDZGQ2Es6I42bH3gOxPGv3rXcl2ft/wKJG9BxiM2ICHhwd4enriUnjUajWYz+dcEoAGSPA6ggaGHpVKhXsgI+pVJiKTyUA8Hofb21uIxWIQjUb/ipubG/quKrAdVGxXCWxEYKrV6tkR0h2O43APZIj3gG63C8/PzzQqq9UKHh8fIRKJ0DesGtfq3d0dfH9/H99LwDp2ux14xsN4POa3AtAAVSwWCxodb9rvveVAz/1+n79eJuI9wKsDvr6+SD8+PvjtD4dvn5+fpCpDBWIDcEqehh//d5WhArEB1441gNVYrAGsxmINYDUWawCrsVgDWLWBNze8D0hDF9oNSKfTlChJJpOkQUMXSpKieNfHzM9sNoNms0nPWC2Ofr1eh1arRbdBfP9bsJ5UKkV5BzQRy6ouQgQaIMWboqTT6fSYD0BVFd4M2LuuS214ppKqQvsSwLygfzr/a2CWCbVQKKgd9RPsKcCqDckpgPsG6mazUZYB8qN9E2w0GrQJ4h+Cy+E34LTHenDz63Q617UJemuXngeDAX27VLQvge12S6P//v5+nNpBQhcXfQqchi7sKcBqLNYAVmOxBrAaizWA1VjEBuA94PBrDZ/9qEqJ+eNcW0EQG4AXn0QiQb/Wcrkcv/1BVUrMH9iuCsS3wclkAm9vb9Sp5XIJw+HweOvD0b+/v4d2u328MaoAu5zNZumWKUVsQLlchpeXFy6FR6lUov9JkiJeAvl8nkYf01fnRljVZegQhzQZtqsCpacAJir8Hf5tEiRsxEvAcRx4fX3lUngUi0VwXZdLwREbMBqNYL1ea8vangO7jEug1+vxm+AoyQleM2ID8Hj7Hx7ijFNxrBo/Ay57iw4BawCrsVgDWI3FGsBqLNYAVmOxBrAaizWA1VisAayGAvAHqlPZ1AvwmoMAAAAASUVORK5CYII=;" vertex="1" parent="1">
          <mxGeometry x="414" y="449" width="64" height="64" as="geometry" />
        </mxCell>
        <mxCell id="Ou5FSDPLYj5hlg3WEzVt-40" style="edgeStyle=orthogonalEdgeStyle;rounded=0;orthogonalLoop=1;jettySize=auto;html=1;exitX=1;exitY=0.5;exitDx=0;exitDy=0;entryX=0;entryY=0.5;entryDx=0;entryDy=0;" edge="1" parent="1" source="Ou5FSDPLYj5hlg3WEzVt-38" target="Ou5FSDPLYj5hlg3WEzVt-33">
          <mxGeometry relative="1" as="geometry" />
        </mxCell>
        <mxCell id="Ou5FSDPLYj5hlg3WEzVt-38" value="Add noise and blur" style="rounded=0;whiteSpace=wrap;html=1;" vertex="1" parent="1">
          <mxGeometry x="320" y="212" width="120" height="60" as="geometry" />
        </mxCell>
        <mxCell id="Ou5FSDPLYj5hlg3WEzVt-43" style="edgeStyle=orthogonalEdgeStyle;rounded=0;orthogonalLoop=1;jettySize=auto;html=1;exitX=1;exitY=0.5;exitDx=0;exitDy=0;entryX=0.5;entryY=0;entryDx=0;entryDy=0;" edge="1" parent="1" source="Ou5FSDPLYj5hlg3WEzVt-42" target="Ou5FSDPLYj5hlg3WEzVt-2">
          <mxGeometry relative="1" as="geometry" />
        </mxCell>
        <mxCell id="Ou5FSDPLYj5hlg3WEzVt-44" style="edgeStyle=orthogonalEdgeStyle;rounded=0;orthogonalLoop=1;jettySize=auto;html=1;exitX=1;exitY=0.5;exitDx=0;exitDy=0;" edge="1" parent="1" source="Ou5FSDPLYj5hlg3WEzVt-42" target="Ou5FSDPLYj5hlg3WEzVt-7">
          <mxGeometry relative="1" as="geometry">
            <Array as="points">
              <mxPoint x="200" y="430" />
            </Array>
          </mxGeometry>
        </mxCell>
        <mxCell id="Ou5FSDPLYj5hlg3WEzVt-42" value="Desired character: &lt;b&gt;E&lt;/b&gt;" style="rounded=0;whiteSpace=wrap;html=1;" vertex="1" parent="1">
          <mxGeometry x="80" y="420" width="120" height="60" as="geometry" />
        </mxCell>
        <mxCell id="Ou5FSDPLYj5hlg3WEzVt-46" style="edgeStyle=orthogonalEdgeStyle;rounded=0;orthogonalLoop=1;jettySize=auto;html=1;exitX=1;exitY=0.5;exitDx=0;exitDy=0;entryX=0.5;entryY=0;entryDx=0;entryDy=0;" edge="1" parent="1" source="Ou5FSDPLYj5hlg3WEzVt-45" target="Ou5FSDPLYj5hlg3WEzVt-2">
          <mxGeometry relative="1" as="geometry" />
        </mxCell>
        <mxCell id="Ou5FSDPLYj5hlg3WEzVt-47" style="edgeStyle=orthogonalEdgeStyle;rounded=0;orthogonalLoop=1;jettySize=auto;html=1;exitX=1;exitY=0.5;exitDx=0;exitDy=0;" edge="1" parent="1" source="Ou5FSDPLYj5hlg3WEzVt-45">
          <mxGeometry relative="1" as="geometry">
            <mxPoint x="295" y="270" as="targetPoint" />
          </mxGeometry>
        </mxCell>
        <mxCell id="Ou5FSDPLYj5hlg3WEzVt-45" value="Tradeoff between discriminator and classifier" style="rounded=0;whiteSpace=wrap;html=1;" vertex="1" parent="1">
          <mxGeometry x="80" y="240" width="120" height="60" as="geometry" />
        </mxCell>
      </root>
    </mxGraphModel>
  </diagram>
</mxfile>
